<svg xmlns="http://www.w3.org/2000/svg" viewBox="0 0 32 32" width="32" height="32" fill="none">
  <defs>
    <linearGradient id="pinGrad" x1="0%" y1="0%" x2="100%" y2="100%">
      <stop offset="0%" stop-color="#10b981" />
      <stop offset="100%" stop-color="#059669" />
    </linearGradient>
  </defs>
  <!-- Map Pin Shape -->
  <path d="M16 2C10.48 2 6 6.48 6 12C6 19.5 16 30 16 30C16 30 26 19.5 26 12C26 6.48 21.52 2 16 2Z" fill="url(#pinGrad)" />
  <!-- Inner Chat Bubble (white cutout/foreground) -->
  <path d="M16 7C13.24 7 11 9.24 11 12C11 13.38 11.56 14.62 12.46 15.54L12 17.5L14 17C14.62 17.16 15.3 17 16 17C18.76 17 21 14.76 21 12C21 9.24 18.76 7 16 7Z" fill="#ffffff" />
</svg>